# xmcd
#
# Track frame offsets:
#	150
#	17268
#	32208
#	53165
#	72264
#	91756
#	107301
#	122509
#	136414
#	153093
#	168555
#	186924
#	203979
#	221313
#
# Disc length: 3143 seconds
#
# Revision: 0
# Processed by: cddbd v1.5.1PL0 Copyright (c) Steve Scherf et al.
# Submitted via: dBpowerAMP V4.0
#
DISCID=b00c450e
DTITLE=Andre Hazes - Hazes nu
DYEAR=2001
DGENRE=Blues
TTITLE0=Ik neem je mee
TTITLE1=Ga maar weg
TTITLE2=Niet mee bemoeien
TTITLE3=Boem Boem
TTITLE4=Blijf nog even hangen
TTITLE5=Mijn kleine meid
TTITLE6=Met jou wil ik leven
TTITLE7=Je ouwe heer
TTITLE8=weer een dag voorbij
TTITLE9=Is het waar
TTITLE10=Poei Poei
TTITLE11=Het maak mij niets meer uit
TTITLE12=Ik leef mijn leven
TTITLE13=we gaan gezellig naar de kroeg
EXTD=
EXTT0=
EXTT1=
EXTT2=
EXTT3=
EXTT4=
EXTT5=
EXTT6=
EXTT7=
EXTT8=
EXTT9=
EXTT10=
EXTT11=
EXTT12=
EXTT13=
PLAYORDER=
